<svg xmlns="http://www.w3.org/2000/svg" width="22" height="49" viewBox="0 0 22 49">
  <g id="Polygon_1" data-name="Polygon 1" transform="translate(22) rotate(90)">
    <path d="M 41.16891860961914 21.50000190734863 L 7.831088066101074 21.50000190734863 C 6.563338279724121 21.50000190734863 5.793898105621338 20.67057228088379 5.496528148651123 19.89434242248535 C 5.19916820526123 19.11812210083008 5.217508316040039 17.98689079284668 6.160768032073975 17.13987159729004 L 22.82968902587891 2.171871423721313 C 23.28920745849609 1.759241461753845 23.88240814208984 1.531991481781006 24.49999809265137 1.531991481781006 C 25.11759757995605 1.531991481781006 25.71078872680664 1.759241461753845 26.17031860351562 2.171871423721313 L 42.83923721313477 17.13987159729004 C 43.78249740600586 17.98689079284668 43.80083847045898 19.11811065673828 43.50347900390625 19.89434242248535 C 43.20610809326172 20.67057228088379 42.43666839599609 21.50000190734863 41.16891860961914 21.50000190734863 Z" stroke="none"/>
    <path d="M 24.49999809265137 2.031991958618164 C 24.00591850280762 2.031991958618164 23.53136825561523 2.213790893554688 23.16375732421875 2.543901443481445 L 6.494827270507812 17.51190185546875 C 5.740219116210938 18.18951034545898 5.725547790527344 19.09449195861816 5.96343994140625 19.7154712677002 C 6.201328277587891 20.33645248413086 6.816886901855469 21.00000190734863 7.831089019775391 21.00000190734863 L 41.16891860961914 21.00000190734863 C 42.18310928344727 21.00000190734863 42.79866790771484 20.33645248413086 43.03656005859375 19.71548080444336 C 43.27444839477539 19.09449195861816 43.2597770690918 18.18951034545898 42.50516891479492 17.51190185546875 L 25.83624839782715 2.543901443481445 C 25.4686279296875 2.213790893554688 24.99407768249512 2.031991958618164 24.49999809265137 2.031991958618164 M 24.5 1.031993865966797 C 25.21714973449707 1.031993865966797 25.93430328369141 1.287946701049805 26.5043773651123 1.79985237121582 L 43.17329788208008 16.76785087585449 C 45.22024917602539 18.60594177246094 43.92002868652344 22.00000190734863 41.16891860961914 22.00000190734863 L 7.831089019775391 22.00000190734863 C 5.079967498779297 22.00000190734863 3.779739379882812 18.60594177246094 5.826709747314453 16.76785087585449 L 22.49562835693359 1.79985237121582 C 23.06569862365723 1.287946701049805 23.7828483581543 1.031993865966797 24.5 1.031993865966797 Z" stroke="none" fill="#707070"/>
  </g>
</svg>
